<svg xmlns="http://www.w3.org/2000/svg" viewBox="0 0 64 64" width="64" height="64">
<path d="M 29.65 4.89 L 29.48 4.69 L 28.02 4.64 L 26.73 5.22 L 25.70 6.05 L 23.60 11.72 L 16.53 12.68 L 14.60 13.75 L 13.99 14.40 L 14.16 16.43 L 14.52 22.51 L 9.42 24.46 L 8.35 25.90 L 8.15 27.00 L 7.18 35.26 L 6.87 36.40 L 7.67 37.86 L 8.66 38.17 L 14.35 40.12 L 12.35 45.13 L 12.25 46.84 L 13.46 48.49 L 18.75 54.60 L 20.37 55.73 L 22.09 55.76 L 29.15 53.66 L 33.09 56.26 L 35.18 56.92 L 36.71 56.76 L 44.91 51.34 L 46.14 49.31 L 47.17 43.32 L 52.70 41.59 L 53.80 40.94 L 54.48 39.82 L 58.24 31.42 L 58.40 30.53 L 57.56 29.08 L 56.87 28.47 L 51.52 24.88 L 53.19 20.94 L 53.57 19.89 L 53.57 17.93 L 48.63 11.27 L 46.80 9.88 L 45.00 9.79 L 40.77 11.06 L 38.94 7.68 L 38.26 6.75 L 36.89 5.82 Z M 29.92 11.19 L 34.50 11.62 L 36.39 16.20 L 37.01 16.92 L 38.58 17.54 L 39.90 17.61 L 44.90 15.91 L 47.78 20.06 L 44.77 24.86 L 44.70 26.56 L 45.16 28.01 L 46.07 28.59 L 51.73 32.18 L 49.96 36.80 L 44.30 38.49 L 42.83 38.85 L 42.14 40.23 L 40.53 46.85 L 34.85 50.54 L 31.14 48.20 L 30.02 47.67 L 28.41 47.66 L 22.10 49.61 L 18.51 45.79 L 21.28 39.95 L 21.37 38.05 L 20.73 36.81 L 19.23 35.99 L 12.99 33.68 L 13.84 29.27 L 19.26 26.46 L 20.36 24.98 L 20.63 23.32 L 20.21 17.89 L 25.61 17.46 L 26.90 16.72 L 28.13 15.72 Z " fill="#000" fill-rule="evenodd"/>
<path d="M 43.83 30.76 L 40.92 26.21 L 40.59 25.41 L 37.04 22.35 L 36.15 22.24 L 35.23 22.18 L 30.34 22.81 L 29.23 23.11 L 25.27 25.30 L 24.59 26.68 L 22.70 30.85 L 22.17 31.63 L 22.33 33.20 L 24.34 37.84 L 25.20 38.54 L 28.54 41.51 L 29.88 42.44 L 35.17 42.98 L 36.89 42.75 L 37.71 42.31 L 40.98 38.01 L 41.19 37.76 L 43.81 33.62 L 44.28 32.36 Z M 38.47 32.06 L 36.94 34.83 L 34.48 37.85 L 31.38 37.16 L 28.96 34.88 L 27.81 31.83 L 28.97 29.44 L 31.69 27.46 L 34.53 27.42 L 36.65 29.25 Z " fill="#000" fill-rule="evenodd"/>
</svg>
